%TF.GenerationSoftware,KiCad,Pcbnew,(6.0.6)*%
%TF.CreationDate,2022-07-16T01:52:01+05:30*%
%TF.ProjectId,berg-wire-jumper-extender,62657267-2d77-4697-9265-2d6a756d7065,rev?*%
%TF.SameCoordinates,Original*%
%TF.FileFunction,Soldermask,Top*%
%TF.FilePolarity,Negative*%
%FSLAX46Y46*%
G04 Gerber Fmt 4.6, Leading zero omitted, Abs format (unit mm)*
G04 Created by KiCad (PCBNEW (6.0.6)) date 2022-07-16 01:52:01*
%MOMM*%
%LPD*%
G01*
G04 APERTURE LIST*
G04 Aperture macros list*
%AMRoundRect*
0 Rectangle with rounded corners*
0 $1 Rounding radius*
0 $2 $3 $4 $5 $6 $7 $8 $9 X,Y pos of 4 corners*
0 Add a 4 corners polygon primitive as box body*
4,1,4,$2,$3,$4,$5,$6,$7,$8,$9,$2,$3,0*
0 Add four circle primitives for the rounded corners*
1,1,$1+$1,$2,$3*
1,1,$1+$1,$4,$5*
1,1,$1+$1,$6,$7*
1,1,$1+$1,$8,$9*
0 Add four rect primitives between the rounded corners*
20,1,$1+$1,$2,$3,$4,$5,0*
20,1,$1+$1,$4,$5,$6,$7,0*
20,1,$1+$1,$6,$7,$8,$9,0*
20,1,$1+$1,$8,$9,$2,$3,0*%
G04 Aperture macros list end*
%ADD10RoundRect,0.250000X-0.650000X-1.550000X0.650000X-1.550000X0.650000X1.550000X-0.650000X1.550000X0*%
%ADD11O,1.800000X3.600000*%
%ADD12R,1.700000X1.700000*%
%ADD13O,1.700000X1.700000*%
%ADD14RoundRect,0.250000X0.650000X1.550000X-0.650000X1.550000X-0.650000X-1.550000X0.650000X-1.550000X0*%
%ADD15O,3.500000X3.500000*%
G04 APERTURE END LIST*
D10*
%TO.C,J14*%
X160000000Y-100000000D03*
D11*
X165080000Y-100000000D03*
%TD*%
D12*
%TO.C,J10*%
X147540000Y-68000000D03*
D13*
X147540000Y-70540000D03*
X147540000Y-73080000D03*
X147540000Y-75620000D03*
X147540000Y-78160000D03*
X147540000Y-80700000D03*
X147540000Y-83240000D03*
X147540000Y-85780000D03*
X147540000Y-88320000D03*
X147540000Y-90860000D03*
%TD*%
D12*
%TO.C,J7*%
X132540000Y-68000000D03*
D13*
X132540000Y-70540000D03*
X132540000Y-73080000D03*
X132540000Y-75620000D03*
X132540000Y-78160000D03*
X132540000Y-80700000D03*
X132540000Y-83240000D03*
X132540000Y-85780000D03*
X132540000Y-88320000D03*
X132540000Y-90860000D03*
%TD*%
D12*
%TO.C,J8*%
X117540000Y-68000000D03*
D13*
X117540000Y-70540000D03*
X117540000Y-73080000D03*
X117540000Y-75620000D03*
X117540000Y-78160000D03*
X117540000Y-80700000D03*
X117540000Y-83240000D03*
X117540000Y-85780000D03*
X117540000Y-88320000D03*
X117540000Y-90860000D03*
%TD*%
D14*
%TO.C,J1*%
X105000000Y-60000000D03*
D11*
X99920000Y-60000000D03*
%TD*%
D10*
%TO.C,J13*%
X115000000Y-100000000D03*
D11*
X120080000Y-100000000D03*
%TD*%
D10*
%TO.C,J11*%
X100000000Y-100000000D03*
D11*
X105080000Y-100000000D03*
%TD*%
D12*
%TO.C,J9*%
X162540000Y-68000000D03*
D13*
X162540000Y-70540000D03*
X162540000Y-73080000D03*
X162540000Y-75620000D03*
X162540000Y-78160000D03*
X162540000Y-80700000D03*
X162540000Y-83240000D03*
X162540000Y-85780000D03*
X162540000Y-88320000D03*
X162540000Y-90860000D03*
%TD*%
D15*
%TO.C,*%
X155000000Y-80000000D03*
%TD*%
D14*
%TO.C,J3*%
X120000000Y-60000000D03*
D11*
X114920000Y-60000000D03*
%TD*%
D14*
%TO.C,J5*%
X150000000Y-60000000D03*
D11*
X144920000Y-60000000D03*
%TD*%
D14*
%TO.C,J2*%
X135000000Y-60000000D03*
D11*
X129920000Y-60000000D03*
%TD*%
D15*
%TO.C,*%
X107000000Y-80000000D03*
%TD*%
D14*
%TO.C,J4*%
X165000000Y-60000000D03*
D11*
X159920000Y-60000000D03*
%TD*%
D10*
%TO.C,J15*%
X145000000Y-100000000D03*
D11*
X150080000Y-100000000D03*
%TD*%
D12*
%TO.C,J6*%
X102540000Y-68000000D03*
D13*
X102540000Y-70540000D03*
X102540000Y-73080000D03*
X102540000Y-75620000D03*
X102540000Y-78160000D03*
X102540000Y-80700000D03*
X102540000Y-83240000D03*
X102540000Y-85780000D03*
X102540000Y-88320000D03*
X102540000Y-90860000D03*
%TD*%
D10*
%TO.C,J12*%
X130000000Y-100000000D03*
D11*
X135080000Y-100000000D03*
%TD*%
M02*
