%TF.GenerationSoftware,KiCad,Pcbnew,(6.0.6)*%
%TF.CreationDate,2022-07-16T01:52:01+05:30*%
%TF.ProjectId,berg-wire-jumper-extender,62657267-2d77-4697-9265-2d6a756d7065,rev?*%
%TF.SameCoordinates,Original*%
%TF.FileFunction,Copper,L1,Top*%
%TF.FilePolarity,Positive*%
%FSLAX46Y46*%
G04 Gerber Fmt 4.6, Leading zero omitted, Abs format (unit mm)*
G04 Created by KiCad (PCBNEW (6.0.6)) date 2022-07-16 01:52:01*
%MOMM*%
%LPD*%
G01*
G04 APERTURE LIST*
G04 Aperture macros list*
%AMRoundRect*
0 Rectangle with rounded corners*
0 $1 Rounding radius*
0 $2 $3 $4 $5 $6 $7 $8 $9 X,Y pos of 4 corners*
0 Add a 4 corners polygon primitive as box body*
4,1,4,$2,$3,$4,$5,$6,$7,$8,$9,$2,$3,0*
0 Add four circle primitives for the rounded corners*
1,1,$1+$1,$2,$3*
1,1,$1+$1,$4,$5*
1,1,$1+$1,$6,$7*
1,1,$1+$1,$8,$9*
0 Add four rect primitives between the rounded corners*
20,1,$1+$1,$2,$3,$4,$5,0*
20,1,$1+$1,$4,$5,$6,$7,0*
20,1,$1+$1,$6,$7,$8,$9,0*
20,1,$1+$1,$8,$9,$2,$3,0*%
G04 Aperture macros list end*
%TA.AperFunction,ComponentPad*%
%ADD10RoundRect,0.250000X-0.650000X-1.550000X0.650000X-1.550000X0.650000X1.550000X-0.650000X1.550000X0*%
%TD*%
%TA.AperFunction,ComponentPad*%
%ADD11O,1.800000X3.600000*%
%TD*%
%TA.AperFunction,ComponentPad*%
%ADD12R,1.700000X1.700000*%
%TD*%
%TA.AperFunction,ComponentPad*%
%ADD13O,1.700000X1.700000*%
%TD*%
%TA.AperFunction,ComponentPad*%
%ADD14RoundRect,0.250000X0.650000X1.550000X-0.650000X1.550000X-0.650000X-1.550000X0.650000X-1.550000X0*%
%TD*%
%TA.AperFunction,WasherPad*%
%ADD15O,3.500000X3.500000*%
%TD*%
%TA.AperFunction,Conductor*%
%ADD16C,1.200000*%
%TD*%
%TA.AperFunction,Conductor*%
%ADD17C,1.000000*%
%TD*%
G04 APERTURE END LIST*
D10*
%TO.P,J14,1,Pin_1*%
%TO.N,Net-(J13-Pad1)*%
X160000000Y-100000000D03*
D11*
%TO.P,J14,2,Pin_2*%
X165080000Y-100000000D03*
%TD*%
D12*
%TO.P,J10,1,Pin_1*%
%TO.N,Net-(J10-Pad1)*%
X147540000Y-68000000D03*
D13*
%TO.P,J10,2,Pin_2*%
X147540000Y-70540000D03*
%TO.P,J10,3,Pin_3*%
X147540000Y-73080000D03*
%TO.P,J10,4,Pin_4*%
X147540000Y-75620000D03*
%TO.P,J10,5,Pin_5*%
X147540000Y-78160000D03*
%TO.P,J10,6,Pin_6*%
X147540000Y-80700000D03*
%TO.P,J10,7,Pin_7*%
X147540000Y-83240000D03*
%TO.P,J10,8,Pin_8*%
X147540000Y-85780000D03*
%TO.P,J10,9,Pin_9*%
X147540000Y-88320000D03*
%TO.P,J10,10,Pin_10*%
X147540000Y-90860000D03*
%TD*%
D12*
%TO.P,J7,1,Pin_1*%
%TO.N,Net-(J7-Pad1)*%
X132540000Y-68000000D03*
D13*
%TO.P,J7,2,Pin_2*%
X132540000Y-70540000D03*
%TO.P,J7,3,Pin_3*%
X132540000Y-73080000D03*
%TO.P,J7,4,Pin_4*%
X132540000Y-75620000D03*
%TO.P,J7,5,Pin_5*%
X132540000Y-78160000D03*
%TO.P,J7,6,Pin_6*%
X132540000Y-80700000D03*
%TO.P,J7,7,Pin_7*%
X132540000Y-83240000D03*
%TO.P,J7,8,Pin_8*%
X132540000Y-85780000D03*
%TO.P,J7,9,Pin_9*%
X132540000Y-88320000D03*
%TO.P,J7,10,Pin_10*%
X132540000Y-90860000D03*
%TD*%
D12*
%TO.P,J8,1,Pin_1*%
%TO.N,Net-(J4-Pad1)*%
X117540000Y-68000000D03*
D13*
%TO.P,J8,2,Pin_2*%
X117540000Y-70540000D03*
%TO.P,J8,3,Pin_3*%
X117540000Y-73080000D03*
%TO.P,J8,4,Pin_4*%
X117540000Y-75620000D03*
%TO.P,J8,5,Pin_5*%
X117540000Y-78160000D03*
%TO.P,J8,6,Pin_6*%
X117540000Y-80700000D03*
%TO.P,J8,7,Pin_7*%
X117540000Y-83240000D03*
%TO.P,J8,8,Pin_8*%
X117540000Y-85780000D03*
%TO.P,J8,9,Pin_9*%
X117540000Y-88320000D03*
%TO.P,J8,10,Pin_10*%
X117540000Y-90860000D03*
%TD*%
D14*
%TO.P,J1,1,Pin_1*%
%TO.N,Net-(J1-Pad1)*%
X105000000Y-60000000D03*
D11*
%TO.P,J1,2,Pin_2*%
X99920000Y-60000000D03*
%TD*%
D10*
%TO.P,J13,1,Pin_1*%
%TO.N,Net-(J4-Pad1)*%
X115000000Y-100000000D03*
D11*
%TO.P,J13,2,Pin_2*%
X120080000Y-100000000D03*
%TD*%
D10*
%TO.P,J11,1,Pin_1*%
%TO.N,Net-(J1-Pad1)*%
X100000000Y-100000000D03*
D11*
%TO.P,J11,2,Pin_2*%
X105080000Y-100000000D03*
%TD*%
D12*
%TO.P,J9,1,Pin_1*%
%TO.N,Net-(J13-Pad1)*%
X162540000Y-68000000D03*
D13*
%TO.P,J9,2,Pin_2*%
X162540000Y-70540000D03*
%TO.P,J9,3,Pin_3*%
X162540000Y-73080000D03*
%TO.P,J9,4,Pin_4*%
X162540000Y-75620000D03*
%TO.P,J9,5,Pin_5*%
X162540000Y-78160000D03*
%TO.P,J9,6,Pin_6*%
X162540000Y-80700000D03*
%TO.P,J9,7,Pin_7*%
X162540000Y-83240000D03*
%TO.P,J9,8,Pin_8*%
X162540000Y-85780000D03*
%TO.P,J9,9,Pin_9*%
X162540000Y-88320000D03*
%TO.P,J9,10,Pin_10*%
X162540000Y-90860000D03*
%TD*%
D15*
%TO.P,,*%
%TO.N,*%
X155000000Y-80000000D03*
%TD*%
D14*
%TO.P,J3,1,Pin_1*%
%TO.N,Net-(J4-Pad1)*%
X120000000Y-60000000D03*
D11*
%TO.P,J3,2,Pin_2*%
X114920000Y-60000000D03*
%TD*%
D14*
%TO.P,J5,1,Pin_1*%
%TO.N,Net-(J10-Pad1)*%
X150000000Y-60000000D03*
D11*
%TO.P,J5,2,Pin_2*%
X144920000Y-60000000D03*
%TD*%
D14*
%TO.P,J2,1,Pin_1*%
%TO.N,Net-(J7-Pad1)*%
X135000000Y-60000000D03*
D11*
%TO.P,J2,2,Pin_2*%
X129920000Y-60000000D03*
%TD*%
D15*
%TO.P,,*%
%TO.N,*%
X107000000Y-80000000D03*
%TD*%
D14*
%TO.P,J4,1,Pin_1*%
%TO.N,Net-(J13-Pad1)*%
X165000000Y-60000000D03*
D11*
%TO.P,J4,2,Pin_2*%
X159920000Y-60000000D03*
%TD*%
D10*
%TO.P,J15,1,Pin_1*%
%TO.N,Net-(J10-Pad1)*%
X145000000Y-100000000D03*
D11*
%TO.P,J15,2,Pin_2*%
X150080000Y-100000000D03*
%TD*%
D12*
%TO.P,J6,1,Pin_1*%
%TO.N,Net-(J1-Pad1)*%
X102540000Y-68000000D03*
D13*
%TO.P,J6,2,Pin_2*%
X102540000Y-70540000D03*
%TO.P,J6,3,Pin_3*%
X102540000Y-73080000D03*
%TO.P,J6,4,Pin_4*%
X102540000Y-75620000D03*
%TO.P,J6,5,Pin_5*%
X102540000Y-78160000D03*
%TO.P,J6,6,Pin_6*%
X102540000Y-80700000D03*
%TO.P,J6,7,Pin_7*%
X102540000Y-83240000D03*
%TO.P,J6,8,Pin_8*%
X102540000Y-85780000D03*
%TO.P,J6,9,Pin_9*%
X102540000Y-88320000D03*
%TO.P,J6,10,Pin_10*%
X102540000Y-90860000D03*
%TD*%
D10*
%TO.P,J12,1,Pin_1*%
%TO.N,Net-(J7-Pad1)*%
X130000000Y-100000000D03*
D11*
%TO.P,J12,2,Pin_2*%
X135080000Y-100000000D03*
%TD*%
D16*
%TO.N,Net-(J1-Pad1)*%
X105080000Y-65460000D02*
X102540000Y-68000000D01*
X105080000Y-60000000D02*
X100000000Y-60000000D01*
X102540000Y-68000000D02*
X102540000Y-90860000D01*
X105080000Y-60000000D02*
X105080000Y-65460000D01*
X102540000Y-68000000D02*
X102540000Y-90500000D01*
%TO.N,Net-(J4-Pad1)*%
X120080000Y-65460000D02*
X117540000Y-68000000D01*
X120080000Y-60000000D02*
X115000000Y-60000000D01*
X120080000Y-60000000D02*
X120080000Y-65460000D01*
X117540000Y-68000000D02*
X117540000Y-90860000D01*
%TO.N,Net-(J7-Pad1)*%
X135080000Y-60000000D02*
X132540000Y-62540000D01*
X135080000Y-60000000D02*
X130000000Y-60000000D01*
X132540000Y-62540000D02*
X132540000Y-68000000D01*
D17*
X132540000Y-68000000D02*
X132540000Y-90860000D01*
%TO.N,Net-(J10-Pad1)*%
X147540000Y-68000000D02*
X147540000Y-90860000D01*
D16*
X145000000Y-60000000D02*
X150080000Y-60000000D01*
X150080000Y-60000000D02*
X150080000Y-65460000D01*
X150080000Y-65460000D02*
X147540000Y-68000000D01*
%TO.N,Net-(J13-Pad1)*%
X160000000Y-60000000D02*
X165080000Y-60000000D01*
X165080000Y-65460000D02*
X162540000Y-68000000D01*
D17*
X162540000Y-68000000D02*
X162540000Y-90860000D01*
D16*
X165080000Y-60000000D02*
X165080000Y-65460000D01*
%TD*%
M02*
