M48
; DRILL file {KiCad (6.0.6)} date Sat Jul 16 01:52:06 2022
; FORMAT={-:-/ absolute / inch / decimal}
; #@! TF.CreationDate,2022-07-16T01:52:06+05:30
; #@! TF.GenerationSoftware,Kicad,Pcbnew,(6.0.6)
; #@! TF.FileFunction,Plated,1,2,PTH
FMAT,2
INCH
; #@! TA.AperFunction,Plated,PTH,ComponentDrill
T1C0.0394
; #@! TA.AperFunction,Plated,PTH,ComponentDrill
T2C0.0472
%
G90
G05
T1
X4.037Y-2.6772
X4.037Y-2.7772
X4.037Y-2.8772
X4.037Y-2.9772
X4.037Y-3.0772
X4.037Y-3.1772
X4.037Y-3.2772
X4.037Y-3.3772
X4.037Y-3.4772
X4.037Y-3.5772
X4.6276Y-2.6772
X4.6276Y-2.7772
X4.6276Y-2.8772
X4.6276Y-2.9772
X4.6276Y-3.0772
X4.6276Y-3.1772
X4.6276Y-3.2772
X4.6276Y-3.3772
X4.6276Y-3.4772
X4.6276Y-3.5772
X5.2181Y-2.6772
X5.2181Y-2.7772
X5.2181Y-2.8772
X5.2181Y-2.9772
X5.2181Y-3.0772
X5.2181Y-3.1772
X5.2181Y-3.2772
X5.2181Y-3.3772
X5.2181Y-3.4772
X5.2181Y-3.5772
X5.8087Y-2.6772
X5.8087Y-2.7772
X5.8087Y-2.8772
X5.8087Y-2.9772
X5.8087Y-3.0772
X5.8087Y-3.1772
X5.8087Y-3.2772
X5.8087Y-3.3772
X5.8087Y-3.4772
X5.8087Y-3.5772
X6.3992Y-2.6772
X6.3992Y-2.7772
X6.3992Y-2.8772
X6.3992Y-2.9772
X6.3992Y-3.0772
X6.3992Y-3.1772
X6.3992Y-3.2772
X6.3992Y-3.3772
X6.3992Y-3.4772
X6.3992Y-3.5772
T2
X3.9339Y-2.3622
X3.937Y-3.937
X4.1339Y-2.3622
X4.137Y-3.937
X4.5244Y-2.3622
X4.5276Y-3.937
X4.7244Y-2.3622
X4.7276Y-3.937
X5.115Y-2.3622
X5.1181Y-3.937
X5.315Y-2.3622
X5.3181Y-3.937
X5.7055Y-2.3622
X5.7087Y-3.937
X5.9055Y-2.3622
X5.9087Y-3.937
X6.2961Y-2.3622
X6.2992Y-3.937
X6.4961Y-2.3622
X6.4992Y-3.937
T0
M30
